HIERARCHY
ROOT Hips
{
	OFFSET 0.000000 0.000000 0.000000 
	CHANNELS 6 Xposition Yposition Zposition Yrotation Zrotation Xrotation 
	JOINT Lumbar
	{
		OFFSET 0.000000 0.000000 0.000000 
		CHANNELS 3 Zrotation Xrotation Yrotation
		JOINT Neck
		{
			OFFSET 0.000000 0.445665 0.000000 
			CHANNELS 3 Zrotation Xrotation Yrotation
			End Site
			{
				OFFSET 0.000000 0.227535 0.000000 
			}
		}
		JOINT RightShoulder
		{
			OFFSET 0.019635 0.377685 0.194865 
			CHANNELS 3 Zrotation Xrotation Yrotation
			JOINT RightElbow
			{
				OFFSET 0.000000 -0.243375 0.000000 
				CHANNELS 2 Zrotation Yrotation
				JOINT RightWrist
				{
					OFFSET 0.000000 -0.264825 0.000000 
					CHANNELS 2 Zrotation Xrotation
					End Site
					{
						OFFSET 0.006600 -0.176220 0.000990 
					}
				}
			}
		}
		JOINT LeftShoulder
		{
			OFFSET 0.019635 0.377685 -0.194865 
			CHANNELS 3 Zrotation Xrotation Yrotation
			JOINT LeftElbow
			{
				OFFSET 0.000000 -0.243375 0.000000 
				CHANNELS 2 Zrotation Yrotation
				JOINT LeftWrist
				{
					OFFSET 0.000000 -0.264825 0.000000 
					CHANNELS 2 Zrotation Xrotation
					End Site
					{
						OFFSET 0.006600 -0.176220 -0.000990 
					}
				}
			}
		}
	}
	JOINT RightHip
	{
		OFFSET 0.052140 -0.069960 0.075570 
		CHANNELS 3 Zrotation Xrotation Yrotation
		JOINT RightKnee
		{
			OFFSET 0.000000 -0.402270 0.000000 
			CHANNELS 1 Zrotation
			JOINT RightAnkle
			{
				OFFSET 0.000000 -0.404085 0.000000 
				CHANNELS 3 Zrotation Xrotation Yrotation
				End Site
				{
					OFFSET 0.204105 -0.089430 0.008415 
				}
			}
		}
	}
	JOINT LeftHip
	{
		OFFSET 0.052140 -0.069960 -0.075570 
		CHANNELS 3 Zrotation Xrotation Yrotation
		JOINT LeftKnee
		{
			OFFSET 0.000000 -0.402270 0.000000 
			CHANNELS 1 Zrotation
			JOINT LeftAnkle
			{
				OFFSET 0.000000 -0.404085 0.000000 
				CHANNELS 3 Zrotation Xrotation Yrotation
				End Site
				{
					OFFSET 0.204105 -0.089430 -0.008415 
				}
			}
		}
	}
}
MOTION
Frames: 27
Frame Time: 0.02
-0.638 0.00576 -0.004 -181.73489 -29.69912 -3.52938 42.34912 1.03341 2.22922 -8.36873 12.75755 -2.11994 135.56955 -29.56789 -87.00866 5.78758 61.53035 -7.20086 8.0829 -22.50256 138.2765 -4.33875 8.6758 -74.89069 -21.88665 -0.70452 29.52006 -6.72055 -9.89922 -14.57564 -10.36159 -3.20956 -3.98457 24.8399 6.54707 9.5293 -17.30377 -7.82434 2.85496 3.69572
-0.63712 0.00574 -0.00661 -183.53284 -29.81179 -3.65282 42.28136 1.08964 2.15308 -8.29646 12.82726 -2.11994 135.35155 -29.38168 -87.29966 5.78712 60.25416 -7.50968 8.17913 -22.55324 138.04678 -4.14441 8.77578 -75.47848 -21.86028 -0.88771 30.18912 -6.50554 -9.40474 -14.96849 -10.38652 -3.33378 -4.04854 24.79618 6.50422 9.68479 -17.24641 -7.9268 2.98056 3.76601
-0.63634 0.00584 -0.00953 -185.31943 -29.87598 -3.78009 42.18118 1.15168 2.09007 -8.26988 12.91067 -2.11994 135.16472 -29.2093 -87.18766 5.78727 58.83158 -7.84441 8.24387 -22.60375 137.80375 -3.56723 8.90568 -76.19346 -21.84231 -0.97543 30.80037 -6.25389 -8.91152 -15.43726 -10.48099 -3.5069 -4.14115 24.67047 6.47526 9.8413 -17.13329 -8.05486 3.098 3.83414
-0.63554 0.00588 -0.01235 -187.09291 -29.95448 -3.90274 42.09033 1.20706 2.00974 -8.23427 12.99023 -2.11994 134.96973 -29.06021 -86.44341 5.78838 57.70429 -8.0758 8.24926 -22.648 137.56871 -3.08561 9.03337 -76.86398 -21.83977 -1.0787 31.42265 -6.02356 -8.46259 -15.86992 -10.54987 -3.65405 -4.21921 24.57048 6.44272 10.0005 -17.04305 -8.17096 3.218 3.90245
-0.63463 0.00595 -0.01499 -188.94917 -30.06244 -4.03763 42.01966 1.28019 1.98131 -8.15509 13.06108 -2.11994 134.74307 -28.78734 -88.89757 5.78463 55.64326 -8.67272 8.54598 -22.71723 137.32486 -2.9063 9.11775 -77.49668 -21.76122 -1.29686 32.10793 -5.77295 -7.8227 -16.31037 -10.59556 -3.81764 -4.30422 24.51556 6.39747 10.14716 -16.96348 -8.2883 3.34335 3.97435
-0.63397 0.00597 -0.01808 -190.62707 -30.10042 -4.14793 41.9019 1.31735 1.84621 -8.17202 13.15182 -2.11994 134.59671 -28.77103 -84.887 5.79071 55.45658 -8.53891 8.25241 -22.73746 137.09861 -2.04093 9.29421 -78.21924 -21.83505 -1.25942 32.64856 -5.55546 -7.57979 -16.74939 -10.70328 -3.95802 -4.38109 24.35024 6.38286 10.31839 -16.84787 -8.40952 3.45537 4.03818
-0.63397 0.00581 -0.02219 -191.82839 -29.93581 -4.18906 41.64181 1.2549 1.41453 -8.48315 13.30641 -2.11994 134.60698 -29.51192 -60.60966 5.8276 60.7681 -6.17544 6.12891 -22.59242 136.896 0.91781 9.76028 -79.30945 -22.40228 -0.47261 32.80565 -5.44589 -8.45202 -17.20096 -10.98977 -4.02671 -4.43206 23.87998 6.44483 10.57668 -16.65196 -8.53108 3.53308 4.08003
-0.63423 0.0056 -0.02675 -192.84757 -29.70635 -4.20544 41.33933 1.15584 0.87391 -8.882 13.47828 -2.11994 134.70646 -30.50205 -30.27563 5.87369 67.91384 -3.1124 3.4484 -22.4031 136.71564 4.50051 10.31039 -80.45852 -23.10987 0.55647 32.81864 -5.36933 -9.71956 -17.64214 -11.33197 -4.06958 -4.47323 23.3049 6.53833 10.85679 -16.42047 -8.6564 3.59743 4.11379
-0.6344 0.00542 -0.03118 -193.94085 -29.52094 -4.23323 41.0696 1.07262 0.3823 -9.21367 13.63408 -2.11994 134.80476 -31.34348 -4.41137 5.91298 74.03479 -0.50725 1.16292 -22.2542 136.54447 7.60331 10.79325 -81.47916 -23.70318 1.43088 32.89719 -5.27342 -10.79529 -18.06557 -11.63231 -4.12127 -4.51647 22.79195 6.62022 11.11354 -16.20199 -8.78266 3.6676 4.15139
-0.63444 0.00519 -0.03532 -195.07024 -29.27323 -4.26009 40.74174 0.99264 -0.10519 -9.66075 13.82479 -2.11994 134.74382 -32.33192 28.56855 5.9631 80.96987 2.67981 -1.71067 -22.02148 136.29515 11.5417 11.39776 -82.927 -24.50581 2.49546 32.97506 -5.19617 -11.92659 -18.58697 -12.00388 -4.18663 -4.57053 22.2172 6.69018 11.42455 -15.99592 -8.89862 3.73882 4.18838
-0.63481 0.00505 -0.04017 -196.08152 -29.13934 -4.28343 40.52539 0.89757 -0.62921 -9.88963 13.94704 -2.11994 135.02797 -33.07693 48.34718 5.99314 86.63182 4.83151 -3.50632 -21.95047 136.20934 13.89126 11.77109 -83.50562 -24.91088 3.2218 33.0188 -5.08637 -13.0307 -18.90024 -12.24069 -4.21719 -4.59965 21.74451 6.79345 11.63084 -15.75498 -9.03657 3.80444 4.22457
-0.63599 0.00516 -0.0468 -196.80996 -29.34582 -4.29895 40.62686 0.76609 -1.21044 -9.47756 13.87343 -2.11994 136.30642 -33.05623 28.56772 5.96302 88.46433 3.8648 -2.05702 -22.35684 136.61038 11.62755 11.46275 -81.59827 -24.13903 2.94174 33.02167 -4.89631 -14.00917 -18.64658 -12.07999 -4.15375 -4.55963 21.60396 6.97083 11.51498 -15.43807 -9.23459 3.86115 4.26213
-0.6375 0.00537 -0.05415 -197.42664 -29.66727 -4.31242 40.84208 0.62135 -1.82718 -8.84608 13.73092 -2.11994 137.9171 -32.78774 -4.41306 5.91284 88.9333 1.84857 0.47268 -22.92353 137.16783 7.75655 10.923 -78.82759 -22.97064 2.31543 32.99212 -4.66947 -14.93838 -18.1828 -11.78338 -4.05664 -4.49514 21.56543 7.18219 11.29744 -15.08563 -9.45456 3.91216 4.29889
-0.63888 0.00554 -0.06121 -198.09469 -29.92988 -4.32965 41.00599 0.48508 -2.43988 -8.32553 13.62136 -2.11994 139.33407 -32.65423 -30.27801 5.87347 89.93182 0.37085 2.4202 -23.40396 137.62677 4.66562 10.50392 -76.49725 -22.01303 1.85512 32.96577 -4.44779 -15.8594 -17.81099 -11.55658 -3.97755 -4.44351 21.46462 7.38494 11.14546 -14.74179 -9.66401 3.96362 4.33492
-0.64017 0.00568 -0.06812 -198.75179 -30.2187 -4.33453 41.16763 0.33723 -3.00844 -7.75948 13.50477 -2.11994 140.93461 -32.43585 -60.61313 5.82729 91.35217 -1.34231 4.72975 -23.94027 138.20157 1.38109 10.02219 -73.96309 -20.93094 1.36468 32.98289 -4.27512 -16.92178 -17.45233 -11.29857 -3.88644 -4.38442 21.42784 7.56115 10.91543 -14.42753 -9.87537 4.02348 4.37518
-0.64172 0.0059 -0.07551 -199.41023 -30.4802 -4.36442 41.3605 0.21084 -3.67201 -7.2365 13.38717 -2.11994 142.23046 -32.33107 -84.89103 5.79036 91.57448 -2.82344 6.55343 -24.39777 138.57281 -1.88241 9.61509 -71.65184 -20.01254 0.8543 32.90386 -3.99236 -17.67478 -17.01824 -11.07157 -3.81229 -4.33493 21.28261 7.79882 10.81991 -14.04496 -10.08856 4.0649 4.40669
-0.64402 0.00635 -0.08409 -200.0775 -30.64597 -4.46839 41.62105 0.14681 -4.62233 -6.87296 13.27483 -2.11994 142.60319 -32.60846 -88.90053 5.78437 88.56234 -3.41112 6.73598 -24.60836 138.33572 -4.76384 9.46843 -70.13039 -19.63891 0.34832 32.56603 -3.40471 -17.56634 -16.41249 -10.97175 -3.79693 -4.32006 20.82082 8.21046 11.15171 -13.47447 -10.29594 4.05463 4.41294
-0.64655 0.00686 -0.09313 -200.75512 -30.779 -4.59675 41.90752 0.10501 -5.66006 -6.56274 13.16496 -2.11994 142.65728 -33.00584 -86.44633 5.78826 84.42542 -3.73225 6.40134 -24.73289 137.88992 -7.55855 9.40473 -68.86928 -19.4437 -0.16266 32.13339 -2.70937 -17.14925 -15.7409 -10.90609 -3.79924 -4.31534 20.24635 8.68036 11.61649 -12.84007 -10.50539 4.02638 4.41068
-0.64893 0.00731 -0.10197 -201.44342 -30.92239 -4.71128 42.17638 0.05333 -6.63588 -6.23578 13.06015 -2.11994 142.8573 -33.34208 -87.18819 5.78725 80.97153 -4.17578 6.32976 -24.89006 137.54457 -10.35115 9.30431 -67.5134 -19.16896 -0.65562 31.74586 -2.0695 -16.88477 -15.10916 -10.81893 -3.79115 -4.30461 19.71775 9.1151 11.99994 -12.23792 -10.71749 4.00792 4.41326
-0.65153 0.00789 -0.1108 -202.06245 -31.08938 -4.83786 42.47411 0.00035 -7.70776 -5.86797 12.92858 -2.11994 143.06485 -33.69841 -87.2994 5.78724 76.76804 -4.64847 6.17849 -25.07849 137.18035 -13.37608 9.1923 -66.02959 -18.87421 -1.22558 31.3491 -1.40026 -16.56909 -14.42811 -10.75189 -3.79188 -4.2989 19.21152 9.58736 12.46807 -11.61306 -10.91529 3.98271 4.41182
-0.65371 0.00823 -0.11975 -202.83007 -31.19724 -4.94448 42.716 -0.04461 -8.59851 -5.6028 12.85207 -2.11994 143.17593 -34.04373 -87.0125 5.78777 73.8482 -4.98565 6.05475 -25.18132 136.80467 -15.87395 9.12642 -64.88335 -18.66831 -1.63364 30.94881 -0.76776 -16.28437 -13.83693 -10.65335 -3.77889 -4.28548 18.63518 9.99529 12.79275 -11.03072 -11.14295 3.96701 4.41657
-0.6547 0.00784 -0.1289 -204.00295 -31.15499 -4.99588 42.79992 -0.07144 -8.97878 -5.59276 12.94532 -2.11994 143.10444 -34.33709 -87.19664 5.78739 74.99791 -4.99133 6.14325 -25.05067 136.44074 -16.93836 9.17496 -64.63033 -18.66966 -1.57559 30.56774 -0.25811 -16.18754 -13.51074 -10.45526 -3.72356 -4.24809 17.85435 10.20801 12.68951 -10.49834 -11.45331 3.98486 4.44188
-0.65524 0.00721 -0.13813 -205.32577 -31.05263 -5.0252 42.82554 -0.09116 -9.17156 -5.68897 13.09045 -2.11994 142.9448 -34.6148 -87.13853 5.78732 77.44171 -4.86856 6.27032 -24.83954 136.0733 -17.46273 9.26695 -64.71015 -18.75582 -1.35532 30.18531 0.20941 -16.12896 -13.27833 -10.22574 -3.65389 -4.20268 17.01409 10.35481 12.43824 -10.02778 -11.79316 4.01233 4.47338
-0.65594 0.0067 -0.14731 -206.58258 -30.97402 -5.06092 42.87576 -0.11499 -9.44268 -5.7466 13.2006 -2.11994 142.81905 -34.896 -87.1338 5.78721 79.1316 -4.81449 6.36768 -24.67619 135.71152 -18.23146 9.33528 -64.6227 -18.8007 -1.22017 29.80009 0.69317 -16.03387 -13.00342 -10.01406 -3.59116 -4.16127 16.22505 10.53332 12.25405 -9.58217 -12.11922 4.03363 4.50118
-0.65682 0.00612 -0.1566 -207.83196 -30.91007 -5.11316 42.93555 -0.13436 -9.74567 -5.76156 13.36044 -2.11994 142.70545 -35.19726 -87.15527 5.78702 81.46737 -4.70934 6.49821 -24.46214 135.32475 -19.02097 9.42248 -64.60164 -18.86061 -1.04021 29.42664 1.19427 -16.0036 -12.72505 -9.78847 -3.5277 -4.11894 15.32764 10.70493 12.07292 -8.90574 -12.44802 4.06218 4.53265
-0.65723 0.00564 -0.16565 -209.1307 -30.80086 -5.12504 42.96046 -0.1616 -9.93689 -5.89424 13.42719 -2.11994 142.55348 -35.45057 -87.14232 5.78694 82.79759 -4.68202 6.57653 -24.33627 134.99273 -19.61698 9.48013 -64.53023 -18.91024 -0.9113 29.02871 1.64622 -15.85787 -12.47768 -9.58394 -3.46154 -4.07621 14.64618 10.87643 11.85145 -8.7314 -12.77684 4.07775 4.5578
-0.65646 0.0055 -0.17409 -210.5427 -30.58902 -5.0338 42.90918 -0.2126 -9.86248 -6.28911 13.2407 -2.11994 142.28616 -35.58267 -87.14639 5.78703 80.88975 -4.91233 6.49203 -24.46784 134.807 -20.00791 9.44157 -64.1332 -18.88294 -0.99429 28.57172 1.98583 -15.32863 -12.28807 -9.44584 -3.39655 -4.03682 14.551 11.04603 11.52781 -9.87718 -13.10853 4.05878 4.56646
